<?xml version="1.0" encoding="UTF-8" standalone="no"?>
<!-- Created with Inkscape (http://www.inkscape.org/) -->

<svg
   xmlns:osb="http://www.openswatchbook.org/uri/2009/osb"
   xmlns:dc="http://purl.org/dc/elements/1.1/"
   xmlns:cc="http://creativecommons.org/ns#"
   xmlns:rdf="http://www.w3.org/1999/02/22-rdf-syntax-ns#"
   xmlns:svg="http://www.w3.org/2000/svg"
   xmlns="http://www.w3.org/2000/svg"
   xmlns:sodipodi="http://sodipodi.sourceforge.net/DTD/sodipodi-0.dtd"
   xmlns:inkscape="http://www.inkscape.org/namespaces/inkscape"
   width="580"
   height="580"
   viewBox="0 0 153.45833 153.45833"
   version="1.1"
   id="svg8"
   inkscape:version="0.92.4 (5da689c313, 2019-01-14)"
   sodipodi:docname="dam-pav.logo.white.svg">
  <defs
     id="defs2">
    <linearGradient
       inkscape:collect="always"
       id="linearGradient888"
       osb:paint="gradient">
      <stop
         style="stop-color:#ffff00;stop-opacity:1;"
         offset="0"
         id="stop884" />
      <stop
         style="stop-color:#ffff00;stop-opacity:0;"
         offset="1"
         id="stop886" />
    </linearGradient>
  </defs>
  <sodipodi:namedview
     id="base"
     pagecolor="#ffffff"
     bordercolor="#666666"
     borderopacity="1.0"
     inkscape:pageopacity="0.0"
     inkscape:pageshadow="2"
     inkscape:zoom="0.70710678"
     inkscape:cx="-81.235765"
     inkscape:cy="254.76386"
     inkscape:document-units="px"
     inkscape:current-layer="layer1"
     showgrid="true"
     showguides="true"
     inkscape:window-width="1920"
     inkscape:window-height="1017"
     inkscape:window-x="-8"
     inkscape:window-y="-8"
     inkscape:window-maximized="1"
     inkscape:guide-bbox="true"
     inkscape:snap-grids="true"
     fit-margin-top="0"
     fit-margin-left="0"
     fit-margin-right="0"
     fit-margin-bottom="0"
     units="px">
    <inkscape:grid
       type="xygrid"
       id="grid880"
       originx="-37.041674"
       originy="-37.04167" />
    <sodipodi:guide
       position="31.749991,190.49999"
       orientation="1,0"
       id="guide2348"
       inkscape:locked="false" />
    <sodipodi:guide
       position="137.58332,89.958326"
       orientation="0,1"
       id="guide2350"
       inkscape:locked="false" />
    <sodipodi:guide
       position="179.91665,79.374997"
       orientation="0,1"
       id="guide2352"
       inkscape:locked="false" />
    <sodipodi:guide
       position="190.49998,74.083327"
       orientation="0,1"
       id="guide2354"
       inkscape:locked="false" />
    <sodipodi:guide
       position="195.79165,63.499997"
       orientation="0,1"
       id="guide2356"
       inkscape:locked="false" />
    <sodipodi:guide
       position="121.70832,137.58333"
       orientation="1,0"
       id="guide2358"
       inkscape:locked="false" />
    <sodipodi:guide
       position="-9.1648191e-06,100.54167"
       orientation="1,0"
       id="guide2382"
       inkscape:locked="false" />
    <sodipodi:guide
       position="153.45832,89.958326"
       orientation="1,0"
       id="guide2384"
       inkscape:locked="false" />
    <sodipodi:guide
       position="169.33332,153.45832"
       orientation="0,1"
       id="guide2386"
       inkscape:locked="false" />
  </sodipodi:namedview>
  <metadata
     id="metadata5">
    <rdf:RDF>
      <cc:Work
         rdf:about="">
        <dc:format>image/svg+xml</dc:format>
        <dc:type
           rdf:resource="http://purl.org/dc/dcmitype/StillImage" />
        <dc:title></dc:title>
      </cc:Work>
    </rdf:RDF>
  </metadata>
  <g
     inkscape:label="Layer 1"
     inkscape:groupmode="layer"
     id="layer1"
     transform="translate(-37.041675,-106.50001)">
    <path
       style="opacity:1;fill:#ffffff;fill-opacity:1;stroke:#0000fc;stroke-width:0;stroke-miterlimit:4;stroke-dasharray:none;stroke-opacity:1"
       d="M 0,0 V 580 H 580 V 0 Z m 120,139.95312 h 80.03711 v 20.00977 h 20.00977 v 60.02734 H 200.03711 V 240 H 120 Z m 80.03711,80.03711 v -60.02734 h -60.02734 v 60.02734 z m 39.93945,-80.03711 H 340.02344 V 240 H 320.01367 V 199.98242 H 259.98633 V 240 h -20.00977 z m 119.97656,0 h 20.00977 v 20.00977 h 20.00977 v 20.00977 h 20.00976 v -20.00977 h 20.00781 V 139.95312 H 460 V 240 h -20.00977 v -60.02734 h -20.00781 v 20.00976 H 399.97266 V 179.97266 H 379.96289 V 240 h -20.00977 z m -99.96679,20.00977 v 20.00977 h 60.02734 V 159.96289 Z M 170,280 h 240 v 10 10 H 170 c -2e-5,0 0,-4.46001 0,-10 0,-5.53999 -2e-5,-10 0,-10 z m -50,60 h 80.03711 v 20.00977 h 20.00977 v 40.01757 h -80.03711 v 40.01954 H 120 Z m 80.03711,20.00977 h -60.02734 v 20.00781 h 60.02734 z M 239.97656,340 h 100.04688 v 100.04688 h -20.00977 v -40.01954 h -60.02734 v 40.01954 h -20.00977 z m 119.97656,0 h 20.00977 v 60.02734 h 20.00977 v 20.00977 h 20.00976 v -20.00977 h 20.00781 V 340 H 460 v 60.02734 h -20.00977 v 20.00977 h -20.00781 v 20.00977 h -20.00976 v -20.00977 h -20.00977 v -20.00977 h -20.00977 z m -99.96679,20.00977 v 20.00781 h 60.02734 v -20.00781 z"
       transform="matrix(0.26458333,0,0,0.26458333,37.041675,106.50001)"
       id="rect834"
       inkscape:connector-curvature="0" />
  </g>
</svg>
